<?xml version="1.0" encoding="UTF-8"?>
<!DOCTYPE svg PUBLIC "-//W3C//DTD SVG 1.1//EN" "http://www.w3.org/Graphics/SVG/1.1/DTD/svg11.dtd">
<svg xmlns="http://www.w3.org/2000/svg" version="1.1" width="500px" height="500px" style="shape-rendering:geometricPrecision; text-rendering:geometricPrecision; image-rendering:optimizeQuality; fill-rule:evenodd; clip-rule:evenodd" xmlns:xlink="http://www.w3.org/1999/xlink">
<g><path style="opacity:1" fill="#fefefe" d="M -0.5,-0.5 C 166.167,-0.5 332.833,-0.5 499.5,-0.5C 499.5,166.167 499.5,332.833 499.5,499.5C 332.833,499.5 166.167,499.5 -0.5,499.5C -0.5,332.833 -0.5,166.167 -0.5,-0.5 Z"/></g>
<g><path style="opacity:1" fill="#c6343e" d="M 172.5,99.5 C 180.174,99.3336 187.841,99.5003 195.5,100C 197.049,101.214 198.215,102.714 199,104.5C 200.815,109.763 202.315,115.097 203.5,120.5C 238.835,120.333 274.168,120.5 309.5,121C 311.594,122.255 312.594,124.088 312.5,126.5C 308.87,145.457 304.87,164.29 300.5,183C 295.948,184.426 291.281,185.426 286.5,186C 263.796,188.337 241.129,191.003 218.5,194C 216.643,199.041 218.476,201.208 224,200.5C 248.437,197.847 272.937,196.68 297.5,197C 300.167,200 300.167,203 297.5,206C 273.955,206.426 250.455,207.593 227,209.5C 210.822,210.674 205.155,203.674 210,188.5C 210.667,186.5 210.667,184.5 210,182.5C 203.14,159.057 195.973,135.724 188.5,112.5C 182.421,111.915 176.421,111.082 170.5,110C 167.402,105.658 168.069,102.158 172.5,99.5 Z"/></g>
<g><path style="opacity:1" fill="#d56c73" d="M 273.5,132.5 C 281.984,131.507 290.651,131.174 299.5,131.5C 299.737,132.791 299.404,133.791 298.5,134.5C 290.567,132.532 282.234,131.865 273.5,132.5 Z"/></g>
<g><path style="opacity:1" fill="#fdfafa" d="M 207.5,132.5 C 217.5,132.5 227.5,132.5 237.5,132.5C 237.5,138.833 237.5,145.167 237.5,151.5C 229.167,151.5 220.833,151.5 212.5,151.5C 211.303,145.044 209.636,138.711 207.5,132.5 Z"/></g>
<g><path style="opacity:1" fill="#fdfafa" d="M 242.5,132.5 C 250.833,132.5 259.167,132.5 267.5,132.5C 267.5,138.833 267.5,145.167 267.5,151.5C 259.167,151.5 250.833,151.5 242.5,151.5C 242.5,145.167 242.5,138.833 242.5,132.5 Z"/></g>
<g><path style="opacity:1" fill="#fefdfd" d="M 273.5,132.5 C 282.234,131.865 290.567,132.532 298.5,134.5C 297.222,140.115 296.222,145.782 295.5,151.5C 288.167,151.5 280.833,151.5 273.5,151.5C 273.5,145.167 273.5,138.833 273.5,132.5 Z"/></g>
<g><path style="opacity:1" fill="#db8086" d="M 236.5,179.5 C 236.5,172.167 236.5,164.833 236.5,157.5C 229.087,156.872 222.087,157.539 215.5,159.5C 214.596,158.791 214.263,157.791 214.5,156.5C 222.167,156.5 229.833,156.5 237.5,156.5C 237.825,164.352 237.492,172.018 236.5,179.5 Z"/></g>
<g><path style="opacity:1" fill="#d56e76" d="M 273.5,157.5 C 280.313,156.509 287.313,156.175 294.5,156.5C 294.737,157.791 294.404,158.791 293.5,159.5C 287.25,157.541 280.584,156.874 273.5,157.5 Z"/></g>
<g><path style="opacity:1" fill="#fefcfc" d="M 236.5,179.5 C 231.668,180.4 226.668,181.066 221.5,181.5C 220.106,173.986 218.106,166.653 215.5,159.5C 222.087,157.539 229.087,156.872 236.5,157.5C 236.5,164.833 236.5,172.167 236.5,179.5 Z"/></g>
<g><path style="opacity:1" fill="#fdf9f9" d="M 242.5,157.5 C 250.833,157.5 259.167,157.5 267.5,157.5C 267.5,163.833 267.5,170.167 267.5,176.5C 259.16,177.084 250.826,177.751 242.5,178.5C 242.5,171.5 242.5,164.5 242.5,157.5 Z"/></g>
<g><path style="opacity:1" fill="#fefbfc" d="M 273.5,157.5 C 280.584,156.874 287.25,157.541 293.5,159.5C 292.617,164.132 291.95,168.798 291.5,173.5C 286.848,173.998 282.181,174.331 277.5,174.5C 276.167,174.5 274.833,174.5 273.5,174.5C 273.5,168.833 273.5,163.167 273.5,157.5 Z"/></g>
<g><path style="opacity:1" fill="#dc858b" d="M 273.5,157.5 C 273.5,163.167 273.5,168.833 273.5,174.5C 274.833,174.5 276.167,174.5 277.5,174.5C 276.081,175.451 274.415,175.784 272.5,175.5C 272.177,169.31 272.51,163.31 273.5,157.5 Z"/></g>
<g><path style="opacity:1" fill="#c6353e" d="M 213.5,214.5 C 226.936,214.743 231.436,221.076 227,233.5C 219.181,240.694 212.181,240.027 206,231.5C 203.785,223.6 206.285,217.934 213.5,214.5 Z"/></g>
<g><path style="opacity:1" fill="#c5333d" d="M 282.5,214.5 C 295.444,215.253 299.611,221.587 295,233.5C 290.701,238.448 285.534,239.615 279.5,237C 270.743,228.132 271.743,220.632 282.5,214.5 Z"/></g>
<g><path style="opacity:1" fill="#c5323c" d="M 246.5,251.5 C 246.168,261.19 246.502,270.856 247.5,280.5C 248.107,280.376 248.44,280.043 248.5,279.5C 252.664,274.503 257.331,270.003 262.5,266C 275.149,265.988 278.982,271.821 274,283.5C 270.019,286.313 266.519,289.647 263.5,293.5C 267.792,297.29 271.958,301.29 276,305.5C 279.699,311.347 278.865,316.514 273.5,321C 268.899,323.292 264.566,322.958 260.5,320C 256.833,316.333 253.167,312.667 249.5,309C 248.552,308.517 247.552,308.351 246.5,308.5C 247.564,318.936 242.897,323.436 232.5,322C 229.272,320.437 227.105,317.937 226,314.5C 225.333,293.167 225.333,271.833 226,250.5C 231.165,242.428 237.498,241.428 245,247.5C 245.791,248.745 246.291,250.078 246.5,251.5 Z"/></g>
<g><path style="opacity:1" fill="#c5353e" d="M 385.5,243.5 C 392.35,242.672 397.183,245.339 400,251.5C 400.667,272.833 400.667,294.167 400,315.5C 395.625,323.896 390.292,324.563 384,317.5C 374.016,325.278 363.849,325.445 353.5,318C 340.739,306.734 338.239,293.567 346,278.5C 353.838,266.98 364.338,262.98 377.5,266.5C 378.329,261.533 378.829,256.533 379,251.5C 380.305,248.039 382.471,245.372 385.5,243.5 Z"/></g>
<g><path style="opacity:1" fill="#e49fa4" d="M 246.5,251.5 C 247.167,260.833 247.833,270.167 248.5,279.5C 248.44,280.043 248.107,280.376 247.5,280.5C 246.502,270.856 246.168,261.19 246.5,251.5 Z"/></g>
<g><path style="opacity:1" fill="#c4313b" d="M 59.5,264.5 C 66.5797,264.039 72.5797,266.373 77.5,271.5C 89.8877,261.523 101.388,262.523 112,274.5C 113.825,277.311 115.158,280.311 116,283.5C 116.667,294.167 116.667,304.833 116,315.5C 113.318,321.257 108.818,323.424 102.5,322C 100.376,320.878 98.5429,319.378 97,317.5C 95.7454,307.907 95.0788,298.24 95,288.5C 92.5823,286.32 89.9156,285.987 87,287.5C 86.6667,296.5 86.3333,305.5 86,314.5C 82.1848,322.549 76.3515,324.382 68.5,320C 67.7894,318.745 66.956,317.579 66,316.5C 65.6667,307.167 65.3333,297.833 65,288.5C 62,285.833 59,285.833 56,288.5C 55.6667,297.5 55.3333,306.5 55,315.5C 51.6568,322.248 46.4901,324.081 39.5,321C 38.3333,319.833 37.1667,318.667 36,317.5C 34.3804,301.901 34.047,286.234 35,270.5C 39.7389,264.185 44.9056,263.852 50.5,269.5C 53.433,267.538 56.433,265.871 59.5,264.5 Z"/></g>
<g><path style="opacity:1" fill="#c5333c" d="M 143.5,264.5 C 159.259,262.785 170.093,269.118 176,283.5C 176.667,287.5 176.667,291.5 176,295.5C 175.535,296.931 174.701,298.097 173.5,299C 163.555,300.092 153.555,300.925 143.5,301.5C 144.693,303.527 146.36,305.027 148.5,306C 153.76,306.53 158.927,306.03 164,304.5C 170.339,304.843 173.006,308.176 172,314.5C 165.702,320.809 158.035,323.809 149,323.5C 131.287,321.288 122.12,311.288 121.5,293.5C 122.052,278.623 129.386,268.956 143.5,264.5 Z"/></g>
<g><path style="opacity:1" fill="#c5353e" d="M 207.5,264.5 C 219.531,262.726 224.698,267.726 223,279.5C 220.341,284.414 216.174,286.581 210.5,286C 207.333,287.167 205.167,289.333 204,292.5C 203.907,300.909 203.24,309.243 202,317.5C 197.811,322.088 192.645,323.588 186.5,322C 184.383,320.269 182.883,318.102 182,315.5C 181.333,301.167 181.333,286.833 182,272.5C 186.375,264.104 191.708,263.437 198,270.5C 200.843,267.837 204.009,265.837 207.5,264.5 Z"/></g>
<g><path style="opacity:1" fill="#c4323c" d="M 300.5,264.5 C 308.458,263.321 315.458,265.321 321.5,270.5C 325.928,264.272 330.761,263.939 336,269.5C 337.634,284.741 337.968,300.074 337,315.5C 335.221,321.143 331.388,323.31 325.5,322C 323.895,320.64 322.395,319.14 321,317.5C 305.891,327.369 293.225,324.702 283,309.5C 274.439,288.663 280.273,273.663 300.5,264.5 Z"/></g>
<g><path style="opacity:1" fill="#c4313b" d="M 413.5,265.5 C 418.677,264.703 423.177,266.036 427,269.5C 428.278,278.399 428.945,287.399 429,296.5C 431.435,301.224 435.269,302.724 440.5,301C 441.701,300.097 442.535,298.931 443,297.5C 443.333,288.833 443.667,280.167 444,271.5C 448.891,264.718 454.891,263.718 462,268.5C 462.667,269.833 463.333,271.167 464,272.5C 464.667,286.833 464.667,301.167 464,315.5C 462.46,320.853 458.96,323.019 453.5,322C 451.333,321.167 449.833,319.667 449,317.5C 439.907,324.791 430.407,325.291 420.5,319C 410.184,310.227 405.85,299.06 407.5,285.5C 407.667,281.167 407.833,276.833 408,272.5C 409.666,270.004 411.5,267.671 413.5,265.5 Z"/></g>
<g><path style="opacity:1" fill="#fcf2f2" d="M 147.5,281.5 C 153.601,280.868 156.934,283.535 157.5,289.5C 152.125,289.828 146.792,289.495 141.5,288.5C 142.833,285.507 144.833,283.173 147.5,281.5 Z"/></g>
<g><path style="opacity:1" fill="#fdf6f7" d="M 305.5,284.5 C 314.037,284.201 317.871,288.201 317,296.5C 314.229,302.637 309.729,304.47 303.5,302C 297.65,295.305 298.317,289.471 305.5,284.5 Z"/></g>
<g><path style="opacity:1" fill="#fdf9f9" d="M 368.5,284.5 C 377.508,285.01 381.008,289.677 379,298.5C 375.692,302.327 371.526,303.494 366.5,302C 359.528,295.349 360.194,289.515 368.5,284.5 Z"/></g>
<g><path style="opacity:1" fill="#cc4c52" d="M 192.5,352.5 C 196.182,352.335 199.848,352.501 203.5,353C 207.722,361.305 205.055,364.805 195.5,363.5C 195.5,365.167 195.5,366.833 195.5,368.5C 194.5,368.5 193.5,368.5 192.5,368.5C 192.5,363.167 192.5,357.833 192.5,352.5 Z"/></g>
<g><path style="opacity:1" fill="#e1949a" d="M 222.5,352.5 C 219.833,352.5 217.167,352.5 214.5,352.5C 214.5,357.833 214.5,363.167 214.5,368.5C 213.511,363.025 213.178,357.358 213.5,351.5C 216.713,351.19 219.713,351.523 222.5,352.5 Z"/></g>
<g><path style="opacity:1" fill="#ca434b" d="M 222.5,352.5 C 226.264,353.423 227.764,355.756 227,359.5C 223.523,362.578 223.69,365.411 227.5,368C 226.5,368.667 225.5,368.667 224.5,368C 223.164,364.168 220.497,362.668 216.5,363.5C 216.923,365.781 216.256,367.448 214.5,368.5C 214.5,363.167 214.5,357.833 214.5,352.5C 217.167,352.5 219.833,352.5 222.5,352.5 Z"/></g>
<g><path style="opacity:1" fill="#cb494f" d="M 238.5,354.5 C 237.549,355.919 237.216,357.585 237.5,359.5C 240.5,359.5 243.5,359.5 246.5,359.5C 244.365,361.369 241.698,362.036 238.5,361.5C 238.5,363.167 238.5,364.833 238.5,366.5C 241.572,366.183 244.572,366.516 247.5,367.5C 243.555,368.491 239.555,368.824 235.5,368.5C 235.5,363.167 235.5,357.833 235.5,352.5C 239.555,352.176 243.555,352.509 247.5,353.5C 244.572,354.484 241.572,354.817 238.5,354.5 Z"/></g>
<g><path style="opacity:1" fill="#e09197" d="M 293.5,352.5 C 291.554,357.396 290.887,362.729 291.5,368.5C 290.511,363.025 290.178,357.358 290.5,351.5C 291.791,351.263 292.791,351.596 293.5,352.5 Z"/></g>
<g><path style="opacity:1" fill="#c83f47" d="M 293.5,352.5 C 296.118,356.291 298.951,359.957 302,363.5C 302.499,359.848 302.665,356.182 302.5,352.5C 304.446,357.396 305.113,362.729 304.5,368.5C 300.579,365.409 297.079,361.742 294,357.5C 294.094,361.633 293.26,365.299 291.5,368.5C 290.887,362.729 291.554,357.396 293.5,352.5 Z"/></g>
<g><path style="opacity:1" fill="#e09096" d="M 302.5,352.5 C 303.209,351.596 304.209,351.263 305.5,351.5C 305.822,357.358 305.489,363.025 304.5,368.5C 305.113,362.729 304.446,357.396 302.5,352.5 Z"/></g>
<g><path style="opacity:1" fill="#c32f39" d="M 314.5,352.5 C 316.436,356.715 317.103,361.381 316.5,366.5C 319.572,366.183 322.572,366.516 325.5,367.5C 321.893,368.489 318.226,368.823 314.5,368.5C 314.5,363.167 314.5,357.833 314.5,352.5 Z"/></g>
<g><path style="opacity:1" fill="#e09096" d="M 335.5,352.5 C 333.554,357.396 332.887,362.729 333.5,368.5C 332.511,363.025 332.178,357.358 332.5,351.5C 333.791,351.263 334.791,351.596 335.5,352.5 Z"/></g>
<g><path style="opacity:1" fill="#cb4a53" d="M 335.5,352.5 C 336.113,358.271 335.446,363.604 333.5,368.5C 332.887,362.729 333.554,357.396 335.5,352.5 Z"/></g>
<g><path style="opacity:1" fill="#c94249" d="M 344.5,352.5 C 345.552,352.351 346.552,352.517 347.5,353C 350.333,356.5 353.167,360 356,363.5C 356.175,359.789 356.675,356.122 357.5,352.5C 358.833,357.833 358.833,363.167 357.5,368.5C 354.176,365.006 351.009,361.339 348,357.5C 347.501,361.152 347.335,364.818 347.5,368.5C 346.5,368.5 345.5,368.5 344.5,368.5C 344.5,363.167 344.5,357.833 344.5,352.5 Z"/></g>
<g><path style="opacity:1" fill="#c83f46" d="M 368.5,352.5 C 372.226,352.177 375.893,352.511 379.5,353.5C 376.572,354.484 373.572,354.817 370.5,354.5C 370.5,356.167 370.5,357.833 370.5,359.5C 381.167,360.167 381.167,360.833 370.5,361.5C 370.5,363.167 370.5,364.833 370.5,366.5C 373.898,366.18 377.232,366.513 380.5,367.5C 376.555,368.491 372.555,368.824 368.5,368.5C 368.5,363.167 368.5,357.833 368.5,352.5 Z"/></g>
<g><path style="opacity:1" fill="#fdfafa" d="M 195.5,354.5 C 197.857,354.337 200.19,354.503 202.5,355C 203.805,360.524 201.472,362.691 195.5,361.5C 195.5,359.167 195.5,356.833 195.5,354.5 Z"/></g>
<g><path style="opacity:1" fill="#fefbfb" d="M 216.5,354.5 C 218.857,354.337 221.19,354.503 223.5,355C 225.032,357.33 224.698,359.33 222.5,361C 220.527,361.495 218.527,361.662 216.5,361.5C 216.5,359.167 216.5,356.833 216.5,354.5 Z"/></g>
<g><path style="opacity:1" fill="#cb474d" d="M 146.5,351.5 C 154.523,351.683 158.023,355.683 157,363.5C 154.103,368.155 149.937,369.655 144.5,368C 138.725,361.701 139.392,356.201 146.5,351.5 Z"/></g>
<g><path style="opacity:1" fill="#fdf6f6" d="M 145.5,354.5 C 151.028,353.069 154.362,355.069 155.5,360.5C 153.304,366.614 149.471,367.947 144,364.5C 141.729,360.697 142.229,357.363 145.5,354.5 Z"/></g>
<g><path style="opacity:1" fill="#c9434a" d="M 271.5,351.5 C 279.523,351.683 283.023,355.683 282,363.5C 279.459,368.069 275.625,369.569 270.5,368C 265.931,365.459 264.431,361.625 266,356.5C 267.73,354.598 269.563,352.931 271.5,351.5 Z"/></g>
<g><path style="opacity:1" fill="#fcf5f6" d="M 270.5,354.5 C 279.24,353.717 281.907,357.217 278.5,365C 272.648,367.905 268.981,366.239 267.5,360C 267.863,357.808 268.863,355.974 270.5,354.5 Z"/></g>
<g><path style="opacity:1" fill="#cf5459" d="M 165.5,352.5 C 166.675,352.281 167.675,352.614 168.5,353.5C 170.265,356.709 172.265,359.709 174.5,362.5C 176.748,359.672 178.748,356.672 180.5,353.5C 181.325,352.614 182.325,352.281 183.5,352.5C 183.5,357.833 183.5,363.167 183.5,368.5C 182.5,368.5 181.5,368.5 180.5,368.5C 180.665,365.15 180.498,361.817 180,358.5C 178.414,361.341 176.58,364.007 174.5,366.5C 172.433,364.044 170.599,361.378 169,358.5C 168.502,361.817 168.335,365.15 168.5,368.5C 167.5,368.5 166.5,368.5 165.5,368.5C 165.5,363.167 165.5,357.833 165.5,352.5 Z"/></g>
<g><path style="opacity:1" fill="#e8adb1" d="M 238.5,354.5 C 238.5,355.833 238.5,357.167 238.5,358.5C 241.385,358.194 244.052,358.527 246.5,359.5C 243.5,359.5 240.5,359.5 237.5,359.5C 237.216,357.585 237.549,355.919 238.5,354.5 Z"/></g>
<g><path style="opacity:1" fill="#cc4a50" d="M 122.5,352.5 C 125.518,352.335 128.518,352.502 131.5,353C 132.308,353.308 132.975,353.808 133.5,354.5C 130.283,354.658 126.95,354.825 123.5,355C 119.356,362.85 121.69,366.517 130.5,366C 131.5,364 132.5,364 133.5,366C 125.707,370.754 120.707,368.754 118.5,360C 118.927,356.977 120.261,354.477 122.5,352.5 Z"/></g>
</svg>
